<?xml version="1.0" encoding="UTF-8"?>
<svg id="Layer_2" data-name="Layer 2" xmlns="http://www.w3.org/2000/svg" viewBox="0 0 621.43 199.18">
  <defs>
    <style>
      .cls-1 {
        fill: #fff;
      }

      .cls-2 {
        fill: #2cace2;
      }
    </style>
  </defs>
  <g id="Layer_1-2" data-name="Layer 1">
    <g>
      <path class="cls-1" d="M86.85,12.58c-18.34-.51-28.09,5.42-28.09,5.42,0,0-11.51-5.49-24.35-5.49S3.36,17.05,0,31.96v114.07H27.06V35.06s1.38-4.48,9.82-4.31c8.44,.17,9.13,4.48,9.13,4.48v110.8h26.19V35.58s2.24-5.17,10.42-4.74,8.7,5.26,8.7,5.26v109.94h26.36V30.58c-1.72-6.63-12.32-17.48-30.84-18"/>
      <path class="cls-1" d="M209.48,23.85c-4.21-4.49-12.49-11.15-29.52-11.33-17.58-.19-27.24,5.19-32.57,9.83-5.79,5.04-7.57,10.34-7.59,10.39v113.26s27.11,0,27.11,0v-25.78h22.51v25.78h25.18V33.54s-.54-4.82-5.12-9.7m-31.08,7.59c.14,0,.28,.01,.42,.02,.18,0,.35,.01,.52,.02,.14,0,.27,.02,.41,.03,.16,.01,.32,.02,.48,.04,.12,.01,.22,.02,.34,.04,.17,.02,.33,.03,.49,.06,.11,.02,.22,.03,.33,.05,.15,.02,.3,.04,.44,.07,.11,.02,.22,.04,.33,.07,.13,.02,.27,.05,.39,.07,.12,.03,.24,.06,.35,.09,.1,.02,.21,.05,.31,.07,.11,.03,.22,.06,.33,.09,.1,.03,.2,.05,.29,.08,.1,.03,.2,.07,.3,.1,.09,.03,.18,.06,.27,.09,.1,.03,.18,.07,.28,.11,.08,.03,.17,.06,.24,.1,.09,.03,.17,.07,.25,.11,.08,.03,.16,.07,.23,.1,.08,.04,.16,.08,.24,.12,.07,.03,.13,.07,.19,.1,.08,.04,.16,.09,.23,.13,.06,.03,.11,.07,.17,.1,.07,.05,.14,.09,.21,.14,.05,.03,.1,.07,.14,.1,.07,.05,.13,.1,.19,.14,.04,.03,.09,.07,.13,.1,.06,.05,.12,.1,.18,.15,.03,.03,.08,.07,.11,.1,.06,.05,.1,.1,.16,.15,.03,.03,.07,.06,.1,.09,.05,.05,.1,.1,.14,.16,.02,.03,.05,.06,.08,.09,.05,.06,.09,.11,.13,.17,.02,.02,.04,.05,.06,.07,.04,.06,.08,.11,.11,.16,.02,.03,.04,.05,.05,.08,.04,.06,.07,.11,.1,.16,.01,.02,.03,.04,.04,.06,.03,.06,.06,.11,.09,.17,.01,.02,.02,.03,.03,.05,.03,.06,.06,.11,.08,.17,0,.01,.01,.02,.02,.03,.02,.06,.05,.11,.07,.17,0,.01,0,.02,.01,.03,.02,.05,.04,.1,.06,.15,0,0,0,.02,0,.03,.02,.05,.03,.1,.05,.15h0c.01,.06,.02,.1,.03,.14,0,0,0,0,0,.01,.01,.04,.02,.08,.02,.11h0s.01,.08,.02,.1h0s0,.06,0,.08h0s0,.07,0,.08V102h-22.51V35.89s.17-4.47,11.25-4.47c.34,0,.68,0,1.01,.01"/>
      <path class="cls-2" d="M230.96,70.08c-7.54,58.35,81.67,75.95,81.67,75.95V75.02h-26.88l.17,41.26s-31.02-14.47-28.6-46.2c2.41-31.73,55.31-39.09,55.31-39.09V12.51s-74.95,5.56-81.67,57.57"/>
      <polygon class="cls-1" points="383.46 55.39 383.46 12.51 410.19 12.51 410.19 145.98 383.46 145.98 383.46 90.37 362.55 72.45 362.55 145.98 334.87 145.98 334.87 12.4 383.46 55.39"/>
      <path class="cls-1" d="M482.19,121.99s-.86,6.2-11.37,5.94c-10.51-.26-11.63-5.17-11.63-5.17V12.51h-26.88V126.64s5.23,19.38,37.86,19.38,37.87-21.45,37.87-21.45V12.51h-25.85V121.99Z"/>
      <path class="cls-1" d="M591.5,12.51h-38.25s-19.53,14.2-23.93,40.05c-4.39,25.85,24.04,50.14,23,64.62s-21.71,28.62-21.71,28.62h34.38s13.35-14.03,13.44-31.21c.09-17.06-28.97-40.35-23-62.55,6.29-23.39,36.07-39.53,36.07-39.53"/>
      <path class="cls-1" d="M610.13,0c-6.23,0-11.3,5.07-11.3,11.3s5.07,11.3,11.3,11.3,11.3-5.07,11.3-11.3-5.07-11.3-11.3-11.3m0,20.65c-5.15,0-9.34-4.19-9.34-9.35s4.19-9.34,9.34-9.34,9.35,4.19,9.35,9.34-4.19,9.35-9.35,9.35"/>
      <path class="cls-1" d="M611.78,11.67v-.06c1.3-.44,2.32-1.52,2.32-3.14,0-.95-.35-1.79-.97-2.34-.77-.69-1.86-1-3.56-1-1.1,0-2.24,.09-3.05,.26v12.14h1.59v-5.33h1.5c1.44,.06,2.1,.69,2.46,2.39,.35,1.53,.62,2.59,.82,2.94h1.64c-.26-.48-.55-1.66-.95-3.38-.29-1.28-.86-2.16-1.81-2.48m-2.05-.68h-1.63V6.5c.26-.07,.81-.14,1.57-.14,1.68,.02,2.83,.71,2.83,2.3,0,1.41-1.08,2.34-2.78,2.34"/>
      <rect class="cls-1" x="0" y="172.3" width="4.37" height="26.61"/>
      <polygon class="cls-1" points="35.34 172.26 35.34 198.91 30.98 198.91 17.85 179.04 17.85 198.91 13.48 198.91 13.48 172.26 17.85 172.26 30.98 192.1 30.98 172.26 35.34 172.26"/>
      <path class="cls-1" d="M43.81,191.56h4.67c.19,2.18,1.72,3.94,4.75,3.94s4.78-1.64,4.78-3.9c0-6.43-14.13-2.26-14.13-12.06,0-4.67,3.71-7.58,9.15-7.58,5.09,0,8.69,2.68,9.07,7.24h-4.82c-.15-1.8-1.72-3.45-4.48-3.52-2.53-.08-4.48,1.15-4.48,3.71,0,6.01,14.09,2.26,14.09,11.99,0,3.98-3.25,7.81-9.19,7.81-5.32,0-9.42-2.91-9.42-7.62"/>
      <polygon class="cls-1" points="69.58 172.3 88.15 172.3 88.15 175.86 81.06 175.86 81.06 198.91 76.7 198.91 76.7 175.86 69.58 175.86 69.58 172.3"/>
      <rect class="cls-1" x="95.92" y="172.3" width="4.37" height="26.61"/>
      <polygon class="cls-1" points="108.02 172.3 126.59 172.3 126.59 175.86 119.51 175.86 119.51 198.91 115.14 198.91 115.14 175.86 108.02 175.86 108.02 172.3"/>
      <path class="cls-1" d="M134.32,172.3h4.37v16.96c0,4.14,2.34,6.09,6.01,6.09s6.05-1.95,6.05-6.09v-16.96h4.37v16.89c0,6.78-4.9,9.99-10.46,9.99s-10.34-3.22-10.34-9.99v-16.89Z"/>
      <polygon class="cls-1" points="162.77 172.3 181.35 172.3 181.35 175.86 174.26 175.86 174.26 198.91 169.9 198.91 169.9 175.86 162.77 175.86 162.77 172.3"/>
      <polygon class="cls-1" points="203.82 175.82 193.48 175.82 193.48 183.63 202.68 183.63 202.68 187.19 193.48 187.19 193.48 195.35 203.82 195.35 203.82 198.91 189.12 198.91 189.12 172.26 203.82 172.26 203.82 175.82"/>
      <path class="cls-1" d="M224.42,185.55c0-7.96,6.09-13.59,13.59-13.59s13.6,5.63,13.6,13.59-6.01,13.63-13.6,13.63-13.59-5.63-13.59-13.63m22.71,0c0-6.01-3.83-9.76-9.12-9.76s-9.11,3.75-9.11,9.76,3.83,9.84,9.11,9.84,9.12-3.83,9.12-9.84"/>
      <polygon class="cls-1" points="259.27 172.3 274.93 172.3 274.93 175.86 263.63 175.86 263.63 183.71 272.44 183.71 272.44 187.27 263.63 187.27 263.63 198.91 259.27 198.91 259.27 172.3"/>
      <polygon class="cls-1" points="294.3 172.3 312.87 172.3 312.87 175.86 305.79 175.86 305.79 198.91 301.43 198.91 301.43 175.86 294.3 175.86 294.3 172.3"/>
      <polygon class="cls-1" points="335.35 175.82 325.01 175.82 325.01 183.63 334.2 183.63 334.2 187.19 325.01 187.19 325.01 195.35 335.35 195.35 335.35 198.91 320.65 198.91 320.65 172.26 335.35 172.26 335.35 175.82"/>
      <path class="cls-1" d="M356.22,171.95c5.55,0,10.34,2.79,12.37,8h-5.25c-1.42-2.83-3.95-4.17-7.12-4.17-5.28,0-9.12,3.75-9.12,9.77s3.83,9.8,9.12,9.8c3.18,0,5.71-1.34,7.12-4.17h5.25c-2.03,5.21-6.82,7.96-12.37,7.96-7.51,0-13.6-5.59-13.6-13.59s6.09-13.6,13.6-13.6"/>
      <polygon class="cls-1" points="377.05 172.3 381.41 172.3 381.41 183.71 393.93 183.71 393.93 172.3 398.3 172.3 398.3 198.91 393.93 198.91 393.93 187.27 381.41 187.27 381.41 198.91 377.05 198.91 377.05 172.3"/>
      <polygon class="cls-1" points="429.28 172.26 429.28 198.91 424.91 198.91 411.78 179.04 411.78 198.91 407.41 198.91 407.41 172.26 411.78 172.26 424.91 192.1 424.91 172.26 429.28 172.26"/>
      <path class="cls-1" d="M436.94,185.55c0-7.96,6.09-13.59,13.59-13.59s13.6,5.63,13.6,13.59-6.01,13.63-13.6,13.63-13.59-5.63-13.59-13.63m22.71,0c0-6.01-3.83-9.76-9.12-9.76s-9.11,3.75-9.11,9.76,3.83,9.84,9.11,9.84,9.12-3.83,9.12-9.84"/>
      <polygon class="cls-1" points="476.14 172.3 476.14 195.39 485.14 195.39 485.14 198.91 471.78 198.91 471.78 172.3 476.14 172.3"/>
      <path class="cls-1" d="M490.69,185.55c0-7.96,6.09-13.59,13.59-13.59s13.6,5.63,13.6,13.59-6.01,13.63-13.6,13.63-13.59-5.63-13.59-13.63m22.71,0c0-6.01-3.83-9.76-9.12-9.76s-9.11,3.75-9.11,9.76,3.83,9.84,9.11,9.84,9.12-3.83,9.12-9.84"/>
      <path class="cls-1" d="M544.8,179.96c-1.42-2.68-3.94-4.02-7.12-4.02-5.28,0-9.11,3.75-9.11,9.61s3.83,9.65,9.11,9.65c4.82,0,7.85-2.91,8.5-7.39h-9.99v-3.48h14.67v3.41c-.81,6.17-6.01,11.41-13.17,11.41s-13.59-5.59-13.59-13.6,6.09-13.59,13.59-13.59c5.55,0,10.34,2.79,12.37,8h-5.25Z"/>
      <polygon class="cls-1" points="556.21 172.3 561.07 172.3 567.24 185.35 573.4 172.3 578.23 172.3 569.42 189.26 569.42 198.91 565.06 198.91 565.06 189.26 556.21 172.3"/>
    </g>
  </g>
</svg>